<mxfile host="app.diagrams.net" modified="2021-06-29T04:05:23.789Z" agent="5.0 (Windows NT 10.0; Win64; x64) AppleWebKit/537.36 (KHTML, like Gecko) Chrome/91.0.4472.114 Safari/537.36" etag="IdUaD66sc8ftz9hfy2wt" version="14.8.2" type="github">
  <diagram id="qN0ZGy-UL52zFGtHsMyt" name="Page-1">
    <mxGraphModel dx="3001" dy="806" grid="1" gridSize="10" guides="1" tooltips="1" connect="1" arrows="1" fold="1" page="1" pageScale="1" pageWidth="850" pageHeight="1100" math="0" shadow="0">
      <root>
        <mxCell id="0" />
        <mxCell id="1" parent="0" />
        <mxCell id="lGNNBb9Z77mbMNhRzt5x-9" style="edgeStyle=orthogonalEdgeStyle;rounded=0;orthogonalLoop=1;jettySize=auto;html=1;entryX=0;entryY=0.5;entryDx=0;entryDy=0;" edge="1" parent="1" source="lGNNBb9Z77mbMNhRzt5x-1" target="lGNNBb9Z77mbMNhRzt5x-7">
          <mxGeometry relative="1" as="geometry" />
        </mxCell>
        <mxCell id="lGNNBb9Z77mbMNhRzt5x-10" style="edgeStyle=orthogonalEdgeStyle;rounded=0;orthogonalLoop=1;jettySize=auto;html=1;" edge="1" parent="1" source="lGNNBb9Z77mbMNhRzt5x-1" target="lGNNBb9Z77mbMNhRzt5x-6">
          <mxGeometry relative="1" as="geometry" />
        </mxCell>
        <mxCell id="lGNNBb9Z77mbMNhRzt5x-11" style="edgeStyle=orthogonalEdgeStyle;rounded=0;orthogonalLoop=1;jettySize=auto;html=1;entryX=0.002;entryY=0.812;entryDx=0;entryDy=0;entryPerimeter=0;" edge="1" parent="1" source="lGNNBb9Z77mbMNhRzt5x-1" target="lGNNBb9Z77mbMNhRzt5x-5">
          <mxGeometry relative="1" as="geometry" />
        </mxCell>
        <mxCell id="lGNNBb9Z77mbMNhRzt5x-1" value="Collection" style="whiteSpace=wrap;html=1;aspect=fixed;" vertex="1" parent="1">
          <mxGeometry x="-940" y="150" width="80" height="80" as="geometry" />
        </mxCell>
        <mxCell id="lGNNBb9Z77mbMNhRzt5x-32" style="edgeStyle=orthogonalEdgeStyle;rounded=0;orthogonalLoop=1;jettySize=auto;html=1;entryX=0;entryY=0.5;entryDx=0;entryDy=0;" edge="1" parent="1" source="lGNNBb9Z77mbMNhRzt5x-2" target="lGNNBb9Z77mbMNhRzt5x-4">
          <mxGeometry relative="1" as="geometry" />
        </mxCell>
        <mxCell id="lGNNBb9Z77mbMNhRzt5x-2" value="Request" style="whiteSpace=wrap;html=1;aspect=fixed;" vertex="1" parent="1">
          <mxGeometry x="-600" y="150" width="40" height="40" as="geometry" />
        </mxCell>
        <mxCell id="lGNNBb9Z77mbMNhRzt5x-3" value="RequestOption" style="whiteSpace=wrap;html=1;aspect=fixed;" vertex="1" parent="1">
          <mxGeometry x="-220" y="70" width="100" height="100" as="geometry" />
        </mxCell>
        <mxCell id="lGNNBb9Z77mbMNhRzt5x-4" value="Response" style="whiteSpace=wrap;html=1;aspect=fixed;" vertex="1" parent="1">
          <mxGeometry x="-220" y="200" width="100" height="100" as="geometry" />
        </mxCell>
        <mxCell id="lGNNBb9Z77mbMNhRzt5x-25" style="edgeStyle=orthogonalEdgeStyle;rounded=0;orthogonalLoop=1;jettySize=auto;html=1;" edge="1" parent="1" source="lGNNBb9Z77mbMNhRzt5x-5" target="lGNNBb9Z77mbMNhRzt5x-23">
          <mxGeometry relative="1" as="geometry" />
        </mxCell>
        <mxCell id="lGNNBb9Z77mbMNhRzt5x-26" style="edgeStyle=orthogonalEdgeStyle;rounded=0;orthogonalLoop=1;jettySize=auto;html=1;" edge="1" parent="1" source="lGNNBb9Z77mbMNhRzt5x-5" target="lGNNBb9Z77mbMNhRzt5x-24">
          <mxGeometry relative="1" as="geometry" />
        </mxCell>
        <mxCell id="lGNNBb9Z77mbMNhRzt5x-5" value="Cname" style="whiteSpace=wrap;html=1;aspect=fixed;" vertex="1" parent="1">
          <mxGeometry x="-750" y="260" width="80" height="80" as="geometry" />
        </mxCell>
        <mxCell id="lGNNBb9Z77mbMNhRzt5x-12" style="edgeStyle=orthogonalEdgeStyle;rounded=0;orthogonalLoop=1;jettySize=auto;html=1;entryX=0;entryY=0.5;entryDx=0;entryDy=0;" edge="1" parent="1" source="lGNNBb9Z77mbMNhRzt5x-6" target="lGNNBb9Z77mbMNhRzt5x-2">
          <mxGeometry relative="1" as="geometry" />
        </mxCell>
        <mxCell id="lGNNBb9Z77mbMNhRzt5x-20" style="edgeStyle=orthogonalEdgeStyle;rounded=0;orthogonalLoop=1;jettySize=auto;html=1;entryX=0;entryY=0.5;entryDx=0;entryDy=0;" edge="1" parent="1" source="lGNNBb9Z77mbMNhRzt5x-6" target="lGNNBb9Z77mbMNhRzt5x-15">
          <mxGeometry relative="1" as="geometry" />
        </mxCell>
        <mxCell id="lGNNBb9Z77mbMNhRzt5x-6" value="Cname" style="whiteSpace=wrap;html=1;aspect=fixed;" vertex="1" parent="1">
          <mxGeometry x="-750" y="150" width="80" height="80" as="geometry" />
        </mxCell>
        <mxCell id="lGNNBb9Z77mbMNhRzt5x-21" style="edgeStyle=orthogonalEdgeStyle;rounded=0;orthogonalLoop=1;jettySize=auto;html=1;entryX=0;entryY=0.75;entryDx=0;entryDy=0;" edge="1" parent="1" source="lGNNBb9Z77mbMNhRzt5x-7" target="lGNNBb9Z77mbMNhRzt5x-18">
          <mxGeometry relative="1" as="geometry" />
        </mxCell>
        <mxCell id="lGNNBb9Z77mbMNhRzt5x-22" style="edgeStyle=orthogonalEdgeStyle;rounded=0;orthogonalLoop=1;jettySize=auto;html=1;entryX=0;entryY=0.75;entryDx=0;entryDy=0;" edge="1" parent="1" source="lGNNBb9Z77mbMNhRzt5x-7" target="lGNNBb9Z77mbMNhRzt5x-19">
          <mxGeometry relative="1" as="geometry" />
        </mxCell>
        <mxCell id="lGNNBb9Z77mbMNhRzt5x-7" value="CollectionName" style="whiteSpace=wrap;html=1;aspect=fixed;" vertex="1" parent="1">
          <mxGeometry x="-750" y="50" width="80" height="80" as="geometry" />
        </mxCell>
        <mxCell id="lGNNBb9Z77mbMNhRzt5x-33" style="edgeStyle=orthogonalEdgeStyle;rounded=0;orthogonalLoop=1;jettySize=auto;html=1;entryX=0;entryY=0.5;entryDx=0;entryDy=0;" edge="1" parent="1" source="lGNNBb9Z77mbMNhRzt5x-15" target="lGNNBb9Z77mbMNhRzt5x-3">
          <mxGeometry relative="1" as="geometry" />
        </mxCell>
        <mxCell id="lGNNBb9Z77mbMNhRzt5x-34" style="edgeStyle=orthogonalEdgeStyle;rounded=0;orthogonalLoop=1;jettySize=auto;html=1;entryX=0;entryY=0.25;entryDx=0;entryDy=0;" edge="1" parent="1" source="lGNNBb9Z77mbMNhRzt5x-15" target="lGNNBb9Z77mbMNhRzt5x-3">
          <mxGeometry relative="1" as="geometry" />
        </mxCell>
        <mxCell id="lGNNBb9Z77mbMNhRzt5x-15" value="Request" style="whiteSpace=wrap;html=1;aspect=fixed;" vertex="1" parent="1">
          <mxGeometry x="-600" y="200" width="40" height="40" as="geometry" />
        </mxCell>
        <mxCell id="lGNNBb9Z77mbMNhRzt5x-27" style="edgeStyle=orthogonalEdgeStyle;rounded=0;orthogonalLoop=1;jettySize=auto;html=1;" edge="1" parent="1" source="lGNNBb9Z77mbMNhRzt5x-18" target="lGNNBb9Z77mbMNhRzt5x-3">
          <mxGeometry relative="1" as="geometry" />
        </mxCell>
        <mxCell id="lGNNBb9Z77mbMNhRzt5x-30" style="edgeStyle=orthogonalEdgeStyle;rounded=0;orthogonalLoop=1;jettySize=auto;html=1;entryX=0.009;entryY=0.668;entryDx=0;entryDy=0;entryPerimeter=0;" edge="1" parent="1" source="lGNNBb9Z77mbMNhRzt5x-18" target="lGNNBb9Z77mbMNhRzt5x-4">
          <mxGeometry relative="1" as="geometry" />
        </mxCell>
        <mxCell id="lGNNBb9Z77mbMNhRzt5x-18" value="Request" style="whiteSpace=wrap;html=1;aspect=fixed;" vertex="1" parent="1">
          <mxGeometry x="-600" y="30" width="40" height="40" as="geometry" />
        </mxCell>
        <mxCell id="lGNNBb9Z77mbMNhRzt5x-28" style="edgeStyle=orthogonalEdgeStyle;rounded=0;orthogonalLoop=1;jettySize=auto;html=1;" edge="1" parent="1" source="lGNNBb9Z77mbMNhRzt5x-19" target="lGNNBb9Z77mbMNhRzt5x-3">
          <mxGeometry relative="1" as="geometry" />
        </mxCell>
        <mxCell id="lGNNBb9Z77mbMNhRzt5x-31" style="edgeStyle=orthogonalEdgeStyle;rounded=0;orthogonalLoop=1;jettySize=auto;html=1;entryX=0;entryY=0.75;entryDx=0;entryDy=0;" edge="1" parent="1" source="lGNNBb9Z77mbMNhRzt5x-19" target="lGNNBb9Z77mbMNhRzt5x-4">
          <mxGeometry relative="1" as="geometry" />
        </mxCell>
        <mxCell id="lGNNBb9Z77mbMNhRzt5x-19" value="Request" style="whiteSpace=wrap;html=1;aspect=fixed;" vertex="1" parent="1">
          <mxGeometry x="-600" y="80" width="40" height="40" as="geometry" />
        </mxCell>
        <mxCell id="lGNNBb9Z77mbMNhRzt5x-35" style="edgeStyle=orthogonalEdgeStyle;rounded=0;orthogonalLoop=1;jettySize=auto;html=1;" edge="1" parent="1" source="lGNNBb9Z77mbMNhRzt5x-23" target="lGNNBb9Z77mbMNhRzt5x-4">
          <mxGeometry relative="1" as="geometry" />
        </mxCell>
        <mxCell id="lGNNBb9Z77mbMNhRzt5x-37" style="edgeStyle=orthogonalEdgeStyle;rounded=0;orthogonalLoop=1;jettySize=auto;html=1;entryX=-0.001;entryY=0.349;entryDx=0;entryDy=0;entryPerimeter=0;" edge="1" parent="1" source="lGNNBb9Z77mbMNhRzt5x-23" target="lGNNBb9Z77mbMNhRzt5x-3">
          <mxGeometry relative="1" as="geometry" />
        </mxCell>
        <mxCell id="lGNNBb9Z77mbMNhRzt5x-23" value="Request" style="whiteSpace=wrap;html=1;aspect=fixed;" vertex="1" parent="1">
          <mxGeometry x="-600" y="260" width="40" height="40" as="geometry" />
        </mxCell>
        <mxCell id="lGNNBb9Z77mbMNhRzt5x-36" style="edgeStyle=orthogonalEdgeStyle;rounded=0;orthogonalLoop=1;jettySize=auto;html=1;" edge="1" parent="1" source="lGNNBb9Z77mbMNhRzt5x-24" target="lGNNBb9Z77mbMNhRzt5x-4">
          <mxGeometry relative="1" as="geometry" />
        </mxCell>
        <mxCell id="lGNNBb9Z77mbMNhRzt5x-39" style="edgeStyle=orthogonalEdgeStyle;rounded=0;orthogonalLoop=1;jettySize=auto;html=1;entryX=-0.003;entryY=0.138;entryDx=0;entryDy=0;entryPerimeter=0;" edge="1" parent="1" source="lGNNBb9Z77mbMNhRzt5x-24" target="lGNNBb9Z77mbMNhRzt5x-3">
          <mxGeometry relative="1" as="geometry" />
        </mxCell>
        <mxCell id="lGNNBb9Z77mbMNhRzt5x-24" value="Request" style="whiteSpace=wrap;html=1;aspect=fixed;" vertex="1" parent="1">
          <mxGeometry x="-600" y="310" width="40" height="40" as="geometry" />
        </mxCell>
      </root>
    </mxGraphModel>
  </diagram>
</mxfile>
